<?xml version="1.0" encoding="UTF-8"?>
<!DOCTYPE svg PUBLIC "-//W3C//DTD SVG 1.1//EN" "http://www.w3.org/Graphics/SVG/1.1/DTD/svg11.dtd">
<!-- Creator: CorelDRAW 2020 (64 Bit) -->
<svg xmlns="http://www.w3.org/2000/svg" xml:space="preserve" width="210mm" height="297mm" version="1.1" style="shape-rendering:geometricPrecision; text-rendering:geometricPrecision; image-rendering:optimizeQuality; fill-rule:evenodd; clip-rule:evenodd"
viewBox="0 0 21000 29700"
 xmlns:xlink="http://www.w3.org/1999/xlink"
 xmlns:xodm="http://www.corel.com/coreldraw/odm/2003">
 <defs>
  <style type="text/css">
   <![CDATA[
    .fil0 {fill:#FEFEFE}
    .fil1 {fill:black}
    .fil6 {fill:#DF1F2E}
    .fil4 {fill:#DF1F2E;fill-rule:nonzero}
    .fil3 {fill:#EE7B1B;fill-rule:nonzero}
    .fil5 {fill:#EE7B1B;fill-rule:nonzero}
    .fil2 {fill:#EFDF2E;fill-rule:nonzero}
   ]]>
  </style>
 </defs>
 <g id="Camada_x0020_1">
  <metadata id="CorelCorpID_0Corel-Layer"/>
  <g id="_2267749021920">
   <path class="fil0" d="M8980.48 14878.27c34.26,26.84 62.95,59.18 85.52,97 55.38,-17.97 113.3,-28.62 171.63,-27.53 58.2,1.08 115.79,11.83 168.49,37.2 49.17,23.68 90.71,57.5 122.85,101.61 19.3,26.49 33.6,55.11 43.1,85.48 24.9,-17.57 51.91,-31.89 80.56,-43.12 45.12,-17.68 92.47,-26.26 140.93,-26.26 47.15,0 93.23,8.47 136.75,26.77 41.46,17.42 78.74,41.99 110.55,73.79 31.8,31.8 56.37,69.09 73.79,110.55 13.4,31.89 21.67,65.12 25.03,99.16l152.35 44.52 -12.83 51.34c-4.03,16.16 -5.45,34.33 -6.15,50.93 -0.69,16.69 1.28,33.13 6.92,48.9 3.44,9.65 8.61,16.92 17.3,22.47 6.8,4.35 29.43,0.01 36.41,-1.68l1.26 -0.29c6.58,-1.43 10.17,-10.29 12.3,-15.75 10.26,-26.37 14.26,-57.02 15.7,-85.11 2.12,-41.43 -0.03,-83.38 -4.42,-124.59 -5.05,-47.47 -11.37,-94.79 -18.97,-141.92 -7.23,-44.83 -15.25,-89.56 -24.37,-134.05 -7.33,-35.75 -14.71,-71.5 -22.36,-107.18l-13.38 -62.48 63.76 -3.99c31.96,-2.01 63.87,-4.52 95.74,-7.61l1.09 -0.09c28.81,-2.22 57.64,-4.28 86.47,-6.23 27.24,-1.85 54.66,-3.23 81.96,-3.23l48.09 0 4.88 36.03 1.46 -6.44 550.69 -42.06 -15.39 201.44c8.6,-12.24 17.79,-24.12 27.57,-35.61 39.76,-46.66 87.19,-84.51 142.01,-111.92 56.23,-28.11 116.68,-41.44 179.54,-41.44 44.19,0 87.6,7.24 129.4,21.57 41.47,14.21 80.26,34.44 115.83,60.1 27.1,19.55 51.94,41.8 74.37,66.42l6.57 -106.33 699 -20.23 -23.55 404.61 -171.95 0 0 622.8 -371.84 0 50.72 -634.73 -206.44 16.95 2.89 -46.78 -217.48 63.55 -17.15 -49.53c-3.37,-9.75 -8.07,-18.26 -17.82,-22.47 -16.71,-7.21 -34.41,-10.21 -52.55,-10.21 -8.79,0 -17.15,2.68 -24.96,6.58 -10.52,5.26 -19.42,12.68 -27.08,21.57 -9.67,11.22 -16.81,24.54 -22.17,38.29 -6.11,15.66 -8.63,32.17 -8.63,48.94 0,15.43 2.73,30.29 8.46,44.62 5.87,14.68 13.55,28.55 23.5,40.88 8.3,10.31 18,19.19 29.4,25.96 6.44,3.82 13.87,7 21.48,7 10.36,0 20.64,-2.78 30.16,-6.7 16.92,-6.96 33.65,-14.35 50.2,-22.14l21.6 -10.16 332.71 132.28 -23.45 52.41c-18.84,42.12 -42.04,82.08 -69.73,119 -27.22,36.3 -58.76,68.93 -94.43,96.99 -35.19,27.7 -73.92,50.08 -115.71,66.2 -42.13,16.24 -86.18,24.6 -131.35,24.6 -64.04,0 -124.95,-14.83 -181.21,-45.41 -54.78,-29.78 -101.88,-69.86 -141.17,-118.25 -38.12,-46.97 -67.04,-99.82 -88.02,-156.33l-18.28 237.68 -522.79 88.44 13.72 -228.26c-12.67,24.18 -27.16,47.47 -43.61,69.69l-1 1.36 -1.09 1.3c-42.64,50.76 -94.75,96.19 -157.48,119.89 -53.26,20.12 -109.13,26.97 -165.16,15.63 -54.36,-11.01 -102.95,-35.98 -145.65,-71.08 -44.21,-36.34 -79.73,-80.63 -107.11,-130.81 -2.17,-3.99 -4.29,-8.01 -6.36,-12.05 -15.61,10.66 -32.1,20.12 -49.37,28.38 -43.78,20.94 -90.64,30.95 -139.17,30.95 -48.99,0 -96.32,-9.76 -141.14,-29.4l12.4 15.54 -264.16 211.33 -64.04 -115.02 4.55 67.83 -318.46 0 16.11 -563.75 -0.77 -0.39c-5.28,8.87 -10.72,17.62 -16.29,26.22 -53.17,82.06 -127.24,153.37 -204.36,214.26l44.38 334.51 -335.98 0 -41.22 -637.34 -64.96 -21.65 22.92 -454.93 -226.21 0 6.94 -242.97c-34.61,58.78 -79.49,109.73 -132.29,153.03 -61.23,50.21 -132.76,84.24 -208.5,106.34l-70.46 20.55 0 -646.56 -57.12 -18.04 -24.46 -553.25 59.33 1.86c71.39,2.23 140.3,18.26 203.95,51 59.42,30.56 112.03,70.88 156.27,120.94 18.03,20.41 34.47,41.94 49.34,64.47l0 -30.83 36.09 -13.23c62.59,-22.96 128.94,-37.15 195.83,-35.9 58.19,1.09 115.78,11.84 168.48,37.21 49.18,23.68 90.71,57.49 122.86,101.61 32.75,44.95 51.12,96.08 56.04,151.48 5.32,59.85 -6.93,119.73 -28.18,175.52 -20.36,53.46 -51.42,102.93 -87.17,147.91l96.54 121.06 112.27 -750.59 337.93 23.53 78.21 415.48c5.37,-37.74 14.44,-74.89 27.51,-111.1 21.32,-59.02 51.33,-114.08 91.68,-162.27 39.16,-46.76 86.23,-84.24 140.76,-111.5 55.79,-27.9 115.59,-41.44 177.99,-41.44 89.5,0 171.24,26.93 243.74,79.39 55.33,40.03 99.55,89.87 133.67,147.39 24.64,-17.29 51.35,-31.41 79.67,-42.5 45.11,-17.68 92.46,-26.26 140.93,-26.26 47.14,0 93.22,8.47 136.74,26.76 17.45,7.34 34.16,15.93 50.02,25.8l16.19 -218.33 280.54 0 11.44 28.69 0 -28.69 242.5 0 4.05 -85.96 33.88 -12.76c78.24,-29.46 160.92,-48.46 244.82,-48.46 71.74,0 143.33,10.83 209.94,38.22 60.48,24.87 113.93,61.32 156.05,111.62 40.91,48.85 66.51,105.29 75.78,168.32 4.2,28.54 4.38,57.12 1.3,85.35l39.09 -261.28 337.92 23.53 82.13 436.3 8.16 -444.04 383.62 0 -49.77 576.09 111.52 -25.91 10.11 -550.18 383.62 0 -49.77 576.09 221.12 -51.39 -46.25 458.28 -527.92 62.11 0.99 -53.7 -334.98 39.41 1.08 5.75 -49.96 0 -72.61 8.54 0.16 -8.54 -201.86 0 0 3.99 -361.53 -25.33 11.04 -73.84c-34.45,40.97 -79.36,68.72 -131.23,84.92l-1.52 0.48 -1.55 0.39c-31.27,7.81 -66.42,10.02 -98.58,10.92 -38.41,1.07 -76.88,0.54 -115.25,-1.57 -47.34,-1.15 -94.65,-3.97 -141.83,-7.9l-37.23 -3.1 0.26 14.14 -707.15 0 14.72 -198.58c-0.21,0.1 -0.42,0.2 -0.63,0.3 -43.78,20.94 -90.64,30.96 -139.17,30.96 -49.77,0 -97.82,-10.07 -143.27,-30.34 -27.09,-12.08 -52.54,-26.9 -76.02,-44.5 -23.58,41.2 -52.02,79.24 -85.72,112.94 -39.22,39.21 -84.36,70.8 -134.98,93.44 -50.14,22.41 -103.11,34.23 -158.02,34.23 -63.26,0 -123.43,-14.69 -179.25,-44.42 -54.77,-29.17 -101.63,-68.77 -140.33,-117.28 -17.07,-21.4 -32.28,-43.99 -45.77,-67.55l42.86 227.7 -324.28 0 0 3.99 -98.92 -6.93zm-443.05 -65.91l-7.2 -12.92 0.99 14.69c2.07,-0.6 4.14,-1.19 6.21,-1.77zm3245.55 -692.43c-5.3,27.95 -13.6,55.42 -24.15,82.04 -22.62,57.05 -58.4,108.32 -99.86,153.8 27.45,27.45 49.51,59.51 65.23,96.32 2.34,5.48 4.55,10.99 6.62,16.52l52.16 -348.68zm-683.57 1362.79l-10.29 -1.77 -17.21 103.24 38.14 -11c-5.76,-29.8 -9.28,-60.01 -10.64,-90.47z"/>
   <path class="fil1" d="M8856.11 14841.96c23.28,8.09 45.86,18.29 67.49,30.92 55.88,32.65 99.48,77.57 129.1,135.11 0.14,0.27 0.28,0.54 0.42,0.81 58.85,-21.39 121.17,-34.72 184,-33.54 54.19,1.01 107.98,10.85 157.05,34.48 45.09,21.71 83.09,52.57 112.56,93.02 25.91,35.57 41.83,75.25 48.49,118.14 31.43,-28.87 67.73,-50.8 107.45,-66.36 41.92,-16.43 85.86,-24.36 130.89,-24.36 43.48,0 85.95,7.74 126.08,24.61 38.18,16.04 72.47,38.6 101.75,67.88 29.28,29.28 51.84,63.58 67.89,101.75 14.72,35.06 22.69,71.82 24.31,109.55l145.32 42.47 -6.41 25.67c-4.51,18.04 -6.17,37.91 -6.95,56.45 -0.84,20.24 1.67,40.18 8.5,59.31 5.5,15.42 14.55,27.56 28.4,36.41 15.47,9.88 41.09,5.89 57.71,1.87l0.64 -0.15c17.03,-3.7 26.06,-17.16 32.09,-32.66 11.37,-29.24 15.93,-62.52 17.53,-93.68 2.2,-42.88 0.01,-86.25 -4.53,-128.91 -5.1,-47.96 -11.49,-95.78 -19.17,-143.39 -7.29,-45.22 -15.38,-90.32 -24.58,-135.19 -7.34,-35.84 -14.75,-71.66 -22.41,-107.43l-6.69 -31.24 31.88 -2c32.26,-2.02 64.5,-4.55 96.67,-7.67l0.54 -0.05c28.74,-2.21 57.49,-4.26 86.24,-6.21 26.6,-1.81 53.42,-3.17 80.09,-3.17l24.05 0 3.23 23.83c6.62,48.8 12.28,97.74 17.27,146.75l32.24 -142.61 498.44 -38.07 -23.13 302.81c20.21,-54.32 48.46,-104.77 86.16,-149.02 37.35,-43.85 81.84,-79.39 133.36,-105.15 52.41,-26.2 108.65,-38.54 167.23,-38.54 41.16,0 81.54,6.74 120.47,20.08 38.92,13.35 75.28,32.32 108.65,56.39 33.78,24.36 63.81,53.17 89.82,85.69 8.34,10.42 16.23,21.15 23.68,32.17l9.47 -153.3 643.86 -18.64 -20.29 348.71 -173.51 0 0 622.8 -314.52 0 50.93 -637.29 -207.02 17 3.35 -54.15 -229.94 67.18 -8.57 -24.76c-6.01,-17.38 -15.76,-31.32 -32.93,-38.74 -20.16,-8.7 -41.54,-12.46 -63.45,-12.46 -13.13,0 -25.58,3.64 -37.26,9.48 -13.8,6.9 -25.58,16.56 -35.63,28.22 -11.73,13.61 -20.44,29.56 -26.96,46.26 -7.36,18.86 -10.51,38.73 -10.51,58.94 0,18.94 3.4,37.26 10.43,54.84 6.89,17.24 15.95,33.47 27.62,47.94 10.38,12.86 22.55,23.9 36.78,32.34 10.86,6.45 22.78,10.87 35.53,10.87 14.03,0 27.73,-3.46 40.64,-8.78 17.34,-7.13 34.48,-14.71 51.44,-22.69l10.8 -5.08 294.94 117.26 -11.72 26.21c-18,40.25 -40.16,78.44 -66.63,113.73 -25.79,34.38 -55.64,65.29 -89.43,91.87 -33.03,26 -69.36,47.02 -108.59,62.15 -38.97,15.03 -79.67,22.76 -121.45,22.76 -59.45,0 -115.84,-13.69 -168.07,-42.07 -51.61,-28.06 -95.92,-65.82 -132.94,-111.41 -39.17,-48.27 -68.06,-103.09 -88.31,-161.75 -20.81,-60.32 -31.1,-123.01 -31.69,-186.74l-168.07 -28.93 0 37.09 108.22 -18.03 -25.88 155.26 -86.94 36.35 -1.74 6.26 162.68 -46.9 -21.73 282.53 -467.45 79.08 25.24 -419.76c-4.89,29.74 -11.07,59.27 -18.61,88.51 -17.58,68.27 -46.16,132.42 -88.19,189.21l-0.5 0.69 -0.55 0.65c-39.49,47.01 -87.99,89.88 -146.13,111.85 -48.39,18.28 -99.04,24.7 -149.98,14.39 -49.92,-10.11 -94.41,-33.13 -133.63,-65.36 -41.48,-34.09 -74.74,-75.65 -100.41,-122.72 -7.35,-13.47 -14.03,-27.27 -20.06,-41.34 -21.74,18.29 -45.77,33.6 -71.71,46.01 -40.08,19.17 -82.88,28.26 -127.3,28.26 -45.9,0 -90.14,-9.26 -132.05,-27.95 -40.41,-18.02 -76.87,-42.54 -108.18,-73.85 -31.28,-31.28 -55.82,-67.77 -73.84,-108.17 -7.94,-17.8 -14.18,-36.03 -18.73,-54.61 -8.49,11.36 -17.35,22.45 -26.48,33.29l191.88 240.63 -217.28 173.82 -107.94 -193.84 10.8 160.96 -260.7 0 15.8 -553 -33.6 -16.79 0 -14.69c-10.6,20.38 -22.28,40.13 -34.58,59.11 -54.28,83.78 -131.57,156.2 -210.62,217.23l42.32 318.98 -278.76 0 -40.75 -630.07 -62.69 -20.89 22.11 -438.69 16.98 -6.31c29.9,-11.12 60.54,-20.46 91.65,-27.42l-84.35 -151.48 10.8 160.95 -260.7 0 10.2 -356.81c-12.31,41.62 -29.31,81.63 -50.88,119.75 -33.53,59.24 -77.88,110.25 -130.45,153.35 -58.33,47.84 -126.61,80.16 -198.75,101.2l-35.23 10.28 0 -630.03 -57.99 -18.32 -22.31 -504.36 29.67 0.93c67.3,2.1 132.21,17.1 192.22,47.96 56.38,29 106.26,67.2 148.24,114.7 41.03,46.42 73.36,98.96 97.48,155.94l0 -121.3 18.05 -6.62c59.38,-21.78 122.35,-35.41 185.83,-34.22 54.19,1.01 107.98,10.85 157.06,34.48 45.09,21.71 83.08,52.58 112.55,93.02 29.82,40.93 46.39,87.3 50.87,137.72 4.95,55.64 -6.73,111.44 -26.48,163.28 -21.9,57.52 -57.11,110.33 -96.83,157.48l149.79 187.85 117.86 -787.93 291.35 20.29 183.59 975.3 -302.2 0 -16.35 -249.75 -0.06 0.02 0 251.73 -195.77 -13.72zm-104.35 -22.62l11.24 -75.12 -91.23 72.99c18.07,-0.98 36.22,-0.99 54.4,0.06 8.56,0.5 17.09,1.19 25.59,2.07zm-717.74 -427.23c2.92,-2.8 5.63,-5.95 8.14,-9.48 10.41,-14.67 16.96,-30.73 18.21,-48.72 1.15,-16.43 -3.42,-30.79 -12.88,-44.23 -3.75,-5.34 -8.33,-9.64 -13.47,-13.11l0 115.54zm1819.32 1044.09l-34.82 0 -16.76 -32.9 -8.69 32.9 -43.57 0 35.82 26.71 -13.62 33.09 22.01 -16.41 43 32.64 -9.32 -48.75 25.95 -27.28zm2873.89 -1019.41l10 -544.6 326.59 0 -50.44 583.95 220.56 -51.26 -40.17 398.01 -474.66 55.84 0.99 -53.71 -395.58 46.55 0.4 2.11 -18.4 0 -42.89 5.05 0.1 -5.05 -241.02 0 -16.35 -249.75 -0.06 0.02 0 251.73 -302.38 -21.19 146.05 -976.4 291.36 20.29 127.83 679.12 12.59 -685.31 326.59 0 -50.44 583.95 169.33 -39.35zm-1639.36 -555.45l4.43 -94.1 16.94 -6.38c75.1,-28.29 154.58,-46.7 235.12,-46.7 68.11,0 136.22,10.15 199.47,36.16 56.34,23.16 106.17,56.96 145.42,103.83 37.64,44.94 61.12,96.65 69.65,154.65 9.15,62.26 -2.65,125 -25.66,183.02 -24.71,62.32 -66.41,117.53 -113.51,165.34 34.28,28.66 61.22,63.73 79.16,105.74 20.52,48.06 30.24,98.65 26.14,150.85 -4.04,51.37 -21.54,98.23 -51.55,140.13 -32.25,45.03 -76.9,74.34 -129.58,90.8l-0.76 0.24 -0.77 0.2c-29.22,7.3 -62.64,9.26 -92.67,10.1 -37.95,1.06 -75.94,0.53 -112.97,-1.54 -47.08,-1.12 -94.14,-3.93 -141.06,-7.84l-23.69 -1.97 -39.1 -620.88 -16.1 -5.93 11.6 639.72 -254.27 0 -25.1 -50.75 0 50.75 -370.11 0 16.35 -220.6c-13.87,9.37 -28.48,17.7 -43.78,25.02 -40.07,19.17 -82.87,28.27 -127.29,28.27 -45.91,0 -90.14,-9.26 -132.06,-27.96 -35.14,-15.67 -67.29,-36.25 -95.67,-61.95 -0.86,1.73 -1.73,3.46 -2.61,5.18 -24.65,48.25 -55.78,92.54 -94.13,130.89 -36.84,36.84 -79.19,66.51 -126.75,87.77 -46.61,20.84 -95.75,31.83 -146.79,31.83 -58.75,0 -114.47,-13.57 -166.31,-41.19 -51.45,-27.4 -95.39,-64.57 -131.75,-110.15 -38.05,-47.7 -66.37,-101.62 -86.56,-159.09 -21.65,-61.65 -31.77,-125.88 -31.77,-191.16 0,-64.11 10.05,-127.15 31.85,-187.51 20.21,-55.98 48.61,-108.24 86.9,-153.95 36.73,-43.86 80.8,-78.98 131.96,-104.55 51.97,-25.99 107.56,-38.54 165.68,-38.54 83.7,0 159.8,25.1 227.61,74.16 60.84,44.03 107.34,100.56 141.23,166.47 29.25,-24.9 62.37,-44.17 98.28,-58.25 41.92,-16.42 85.86,-24.36 130.89,-24.36 43.48,0 85.94,7.74 126.08,24.61 30.9,12.99 59.26,30.25 84.47,51.88l17.96 -242.26 236.33 0 57.62 144.48 0 -144.48 241.23 0zm-1070.74 345.49c1.86,-3.49 3.77,-6.95 5.75,-10.36l-36.85 10.36 31.1 0zm-351.68 0l146.53 0c-4.9,-7.25 -11.4,-13.14 -20.18,-17 -14.49,-6.36 -31.07,-11.62 -47.04,-11.62 -30.73,0 -56.79,9.49 -79.31,28.62zm-16.38 200.63l0 -184.17c-22.43,27.09 -30.17,60.88 -30.17,96.27 0,18.11 3.47,35.53 10.34,52.3 5.21,12.7 11.8,24.61 19.83,35.6zm142.15 35.36l-120.02 -10.9c8.35,7.37 17.53,13.71 27.54,19 14.45,7.62 29.68,11.53 46.02,11.53 14.69,0 30.81,-8.86 42.57,-16.89 1.3,-0.89 2.6,-1.8 3.89,-2.74z"/>
   <path class="fil2" d="M7788.05 13743.24c66.1,2.06 126.26,17.04 180.49,44.93 54.22,27.88 100.96,64.03 140.21,108.44 39.24,44.41 70.74,95.28 94.5,152.6 23.75,57.33 38.99,116.97 45.7,178.94 6.72,61.97 4.65,123.94 -6.19,185.91 -10.85,61.97 -31.77,120.33 -62.75,175.06 -30.98,54.75 -72.3,103.29 -123.94,145.64 -51.64,42.34 -114.64,74.36 -189,96.04l0 -613.49 -58.88 -18.59 -20.14 -455.48zm218.44 692.51c24.79,-5.17 44.16,-17.56 58.1,-37.18 13.94,-19.63 21.69,-40.54 23.24,-62.75 1.55,-22.2 -4.39,-42.86 -17.81,-61.97 -13.43,-19.1 -34.61,-31.24 -63.53,-36.4l0 198.3z"/>
   <path class="fil2" d="M8610.71 14830.8l-151.83 -272.66 17.05 254.08 -202.95 0 15.49 -542.24 -34.09 -17.04 0 -320.7c61.97,-22.72 120.59,-33.56 175.84,-32.53 55.26,1.03 103.8,11.62 145.63,31.76 41.83,20.14 75.92,48.29 102.25,84.43 26.34,36.15 41.57,77.47 45.71,123.95 4.12,46.47 -4.14,96.82 -24.8,151.04 -20.65,54.23 -56.28,109.74 -106.89,166.55l189 237.03 -170.41 136.33zm-151.83 -526.74c12.4,0 22.47,-6.19 30.21,-18.59 7.75,-12.39 12.4,-27.11 13.95,-44.15 1.55,-17.04 -1.3,-34.08 -8.53,-51.12 -7.23,-17.04 -19.1,-29.7 -35.63,-37.96l0 151.82z"/>
   <path class="fil2" d="M9163.79 13904.36l173.51 921.8 -243.23 0 -17.04 -260.28 -52.67 18.6 0 241.68 -243.24 -17.04 137.89 -921.8 244.78 17.04zm-139.43 469.42l52.67 0 -35.63 -139.43 -17.04 139.43z"/>
   <path class="fil2" d="M10099.54 14234.35c9.29,25.82 14.71,47.77 16.26,65.84 1.55,18.08 2.32,35.9 2.32,53.45l0 85.21c-8.26,54.74 -24.52,105.86 -48.8,153.38 -24.27,47.5 -53.96,88.82 -89.08,123.93 -35.12,35.12 -74.62,62.49 -118.51,82.11 -43.9,19.63 -89.09,29.44 -135.57,29.44 -54.73,0 -105.86,-12.65 -153.37,-37.96 -47.51,-25.3 -88.56,-59.64 -123.16,-103.02 -34.6,-43.38 -61.97,-93.73 -82.11,-151.05 -20.14,-57.33 -30.21,-118 -30.21,-182.04 0,-63 10.07,-122.39 30.21,-178.16 20.14,-55.78 47.51,-104.32 82.11,-145.63 34.6,-41.31 75.65,-73.85 123.16,-97.61 47.51,-23.75 98.64,-35.63 153.37,-35.63 77.47,0 147.96,22.98 211.48,68.94 63.52,45.96 112.32,107.68 146.41,185.14l-237.04 66.62c-8.27,-25.82 -22.98,-43.38 -44.15,-52.68 -21.18,-9.29 -40.54,-13.94 -58.1,-13.94 -42.35,0 -78.5,15.24 -108.45,45.71 -29.95,30.46 -44.93,71.52 -44.93,123.16 0,21.69 4.14,42.6 12.4,62.74 8.26,20.14 19.36,38.21 33.31,54.23 13.94,16.01 30.21,28.91 48.8,38.73 18.59,9.81 38.21,14.71 58.87,14.71 17.56,0 36.92,-7.23 58.1,-21.69 21.17,-14.46 35.88,-30.47 44.15,-48.02l-170.42 -15.49 0 -170.42 187.46 0 235.49 0z"/>
   <path class="fil3" d="M10324.18 14054.64c41.31,0 79.78,7.48 115.42,22.46 35.63,14.97 66.61,35.63 92.95,61.97 26.34,26.33 47,57.32 61.97,92.95 14.97,35.64 22.46,74.11 22.46,115.42 0,42.35 -7.49,82.63 -22.46,120.84 -14.97,38.22 -35.63,71.53 -61.97,99.93 -26.34,28.4 -57.32,51.12 -92.95,68.16 -35.64,17.05 -74.11,25.57 -115.42,25.57 -42.35,0 -82.63,-8.52 -120.85,-25.57 -38.21,-17.04 -71.52,-39.76 -99.92,-68.16 -28.4,-28.4 -51.13,-61.71 -68.17,-99.93 -17.04,-38.21 -25.56,-78.49 -25.56,-120.84 0,-41.31 8.52,-79.78 25.56,-115.42 17.04,-35.63 39.77,-66.62 68.17,-92.95 28.4,-26.34 61.71,-47 99.92,-61.97 38.22,-14.98 78.5,-22.46 120.85,-22.46zm63.52 314.49l60.42 -63.52 -82.11 0 -41.83 -82.11 -21.69 82.11 -105.35 0 85.21 63.52 -43.38 105.35 85.21 -63.52 83.65 63.52 -20.13 -105.35z"/>
   <polygon class="fil2" points="10770.36,13888.87 10874.16,14149.14 10874.16,13888.87 11083.3,13888.87 11100.35,14829.26 10891.2,14829.26 10821.48,14688.28 10821.48,14829.26 10508.53,14829.26 10578.25,13888.87 "/>
   <path class="fil4" d="M11577.52 14359.84c44.41,29.95 76.43,67.9 96.05,113.87 19.63,45.96 27.63,91.92 24.02,137.88 -3.62,45.96 -19.12,88.05 -46.48,126.26 -27.37,38.22 -65.85,65.07 -115.42,80.57 -20.66,5.16 -49.58,8.26 -86.76,9.29 -37.18,1.03 -74.36,0.52 -111.54,-1.55 -43.38,-1.03 -89.86,-3.62 -139.44,-7.74l-38.73 -615.06 -58.87 -21.69 18.59 -395.05c79.53,-29.95 154.67,-44.93 225.42,-44.93 70.74,0 133.75,11.36 189,34.08 55.26,22.72 100.19,54.75 134.79,96.05 34.6,41.32 55.77,88.31 63.51,140.99 7.75,52.67 -0.25,108.96 -24,168.86 -23.76,59.91 -67.14,119.3 -130.14,178.17zm-220 -156.48c15.5,-5.16 26.86,-16.78 34.09,-34.85 7.23,-18.08 10.84,-37.7 10.84,-58.88 0,-21.17 -3.61,-41.82 -10.84,-61.97 -7.23,-20.14 -18.59,-34.85 -34.09,-44.15l0 199.85zm40.29 453.93c10.33,-4.13 18.59,-11.87 24.79,-23.24 6.19,-11.35 9.29,-24.01 9.29,-37.95 0,-13.94 -4.13,-27.89 -12.4,-41.83 -8.26,-13.95 -22.2,-26.08 -41.82,-36.41l20.14 139.43z"/>
   <path class="fil4" d="M12118.21 13904.36l173.52 921.8 -243.24 0 -17.04 -260.28 -52.67 18.6 0 241.68 -243.23 -17.04 137.88 -921.8 244.78 17.04zm-139.43 469.42l52.67 0 -35.63 -139.43 -17.04 139.43z"/>
   <polygon class="fil4" points="12308.77,13899.71 12578.34,13899.71 12527.21,14491.52 12747.21,14440.4 12713.13,14778.13 12291.73,14827.71 "/>
   <polygon class="fil4" points="12764.25,13899.71 13033.82,13899.71 12982.7,14491.52 13202.69,14440.4 13168.61,14778.13 12747.21,14827.71 "/>
   <path class="fil5" d="M8798.96 15926.13l-221.54 0 -40.29 -622.8 -60.42 -20.14 20.14 -399.7c80.57,-29.95 156.48,-42.87 227.74,-38.73 71.27,4.13 132.98,21.43 185.13,51.9 52.16,30.46 91.67,71.78 118.52,123.94 26.86,52.15 36.67,110.51 29.44,175.06 -7.23,64.55 -34.6,133.49 -82.11,206.83 -47.51,73.32 -119.81,146.66 -216.89,219.99l40.28 303.65zm-60.42 -622.8c15.49,-5.16 26.85,-16.53 34.08,-34.08 7.23,-17.56 10.84,-37.18 10.84,-58.87 0,-21.69 -3.61,-42.61 -10.84,-62.75 -7.23,-20.13 -18.59,-35.37 -34.08,-45.7l0 201.4zm678.56 630.54l-151.82 -272.66 17.04 254.08 -202.95 0 15.49 -542.24 -34.08 -17.04 0 -320.7c61.97,-22.72 120.58,-33.56 175.84,-32.53 55.25,1.03 103.79,11.62 145.63,31.76 41.83,20.14 75.91,48.28 102.25,84.43 26.33,36.15 41.57,77.46 45.7,123.94 4.13,46.48 -4.13,96.83 -24.79,151.05 -20.66,54.23 -56.29,109.74 -106.9,166.55l189.01 237.03 -170.42 136.33zm-151.82 -526.74c12.39,0 22.46,-6.2 30.21,-18.59 7.74,-12.39 12.39,-27.11 13.94,-44.15 1.55,-17.05 -1.29,-34.08 -8.52,-51.12 -7.23,-17.05 -19.11,-29.7 -35.63,-37.96l0 151.82zm528.29 -249.43c41.31,0 79.78,7.49 115.42,22.47 35.63,14.98 66.62,35.63 92.95,61.97 26.34,26.33 46.99,57.32 61.97,92.95 14.98,35.64 22.47,74.11 22.47,115.42 0,42.35 -7.49,82.63 -22.47,120.84 -14.98,38.22 -35.63,71.53 -61.97,99.93 -26.33,28.4 -57.32,51.12 -92.95,68.17 -35.64,17.04 -74.11,25.56 -115.42,25.56 -42.35,0 -82.63,-8.52 -120.84,-25.56 -38.22,-17.05 -71.53,-39.77 -99.93,-68.17 -28.4,-28.4 -51.12,-61.71 -68.17,-99.93 -17.04,-38.21 -25.56,-78.49 -25.56,-120.84 0,-41.31 8.52,-79.78 25.56,-115.42 17.05,-35.63 39.77,-66.62 68.17,-92.95 28.4,-26.34 61.71,-46.99 99.93,-61.97 38.21,-14.98 78.49,-22.47 120.84,-22.47zm63.52 314.5l60.42 -63.52 -82.11 0 -41.83 -82.11 -21.69 82.11 -105.35 0 85.21 63.52 -43.38 105.35 85.21 -63.52 83.65 63.52 -20.13 -105.35zm489.56 -463.22c33.05,-2.07 65.58,-4.65 97.6,-7.75 26.85,-2.07 55.51,-4.13 85.98,-6.19 30.47,-2.07 56.55,-3.11 78.24,-3.11 8.26,60.94 15.75,127.82 22.47,200.63 6.71,72.82 8.51,145.89 5.42,219.22 -3.1,73.33 -13.43,144.08 -30.99,212.25 -17.56,68.16 -45.44,128.07 -83.66,179.71 -43.38,51.64 -88.31,86.24 -134.78,103.8 -46.48,17.56 -91.41,21.95 -134.79,13.17 -43.38,-8.78 -83.92,-28.66 -121.61,-59.65 -37.7,-30.99 -68.94,-69.2 -93.73,-114.65 -24.79,-45.44 -42.09,-95.79 -51.9,-151.04 -9.81,-55.26 -9.04,-111.81 2.32,-169.64l238.59 69.71c-4.14,16.52 -6.72,37.18 -7.75,61.97 -1.04,24.79 2.32,48.03 10.07,69.71 7.74,21.69 20.92,38.48 39.5,50.36 18.6,11.87 44.93,13.68 79.02,5.42 23.75,-5.17 41.05,-21.69 51.9,-49.58 10.84,-27.88 17.3,-61.97 19.36,-102.25 2.06,-40.28 0.52,-84.69 -4.65,-133.23 -5.16,-48.55 -11.62,-96.83 -19.36,-144.86 -7.75,-48.02 -16.01,-93.47 -24.79,-136.33 -8.78,-42.86 -16.27,-78.76 -22.46,-107.67zm773.07 421.39l-189.01 -32.53 0 102.25 102.25 -17.05 -17.04 102.26 -85.21 35.63 -18.59 66.61 171.96 -49.57 -17.04 221.54 -412.1 69.72 34.09 -567.03 -51.13 -35.63 69.72 -308.3 446.18 -34.08 -34.08 446.18zm788.56 229.29c-17.56,39.25 -38.73,75.4 -63.52,108.45 -24.79,33.05 -52.93,61.96 -84.43,86.75 -31.5,24.79 -65.33,44.16 -101.48,58.1 -36.15,13.95 -73.33,20.91 -111.54,20.91 -55.78,0 -107.42,-12.91 -154.93,-38.73 -47.51,-25.82 -89.08,-60.68 -124.71,-104.57 -35.63,-43.89 -63.52,-95.02 -83.66,-153.38 -20.14,-58.35 -30.21,-119.54 -30.21,-183.58 0,-64.04 10.07,-124.2 30.21,-180.49 20.14,-56.29 48.03,-105.35 83.66,-147.18 35.63,-41.82 77.2,-74.62 124.71,-98.37 47.51,-23.76 99.15,-35.64 154.93,-35.64 38.21,0 75.39,6.2 111.54,18.6 36.15,12.39 69.98,29.95 101.48,52.67 31.5,22.72 59.64,49.57 84.43,80.56 24.79,30.98 45.96,65.59 63.52,103.8l-238.59 69.71c-9.29,-26.85 -25.3,-45.18 -48.02,-54.99 -22.72,-9.82 -47.51,-14.72 -74.36,-14.72 -16.53,0 -33.05,4.13 -49.58,12.4 -16.53,8.26 -31.24,19.88 -44.15,34.85 -12.92,14.98 -23.5,33.05 -31.77,54.23 -8.26,21.17 -12.38,44.15 -12.38,68.94 0,22.72 4.12,44.41 12.38,65.06 8.27,20.66 18.85,38.99 31.77,55 12.91,16.01 27.62,28.92 44.15,38.73 16.53,9.82 33.05,14.72 49.58,14.72 16.52,0 33.56,-3.61 51.12,-10.84 17.56,-7.24 35.12,-14.98 52.68,-23.24l257.17 102.25zm605.75 -644.49l-17.04 292.81 -175.06 0 0 622.8 -257.18 0 51.13 -639.84 -207.6 17.04 17.04 -275.76 588.71 -17.05z"/>
   <polygon class="fil6" points="10197.14,14305.61 10282.35,14369.13 10238.97,14474.48 10324.18,14410.96 10407.83,14474.48 10387.7,14369.13 10448.12,14305.61 10366.01,14305.61 10324.18,14223.5 10302.49,14305.61 "/>
   <polygon class="fil6" points="9666.52,15408.69 9751.73,15472.21 9708.34,15577.56 9793.56,15514.04 9877.21,15577.56 9857.08,15472.21 9917.5,15408.69 9835.38,15408.69 9793.56,15326.58 9771.86,15408.69 "/>
  </g>
 </g>
</svg>
